<?xml version="1.0" standalone="no"?>
<!DOCTYPE svg PUBLIC "-//W3C//DTD SVG 1.1//EN" "http://www.w3.org/Graphics/SVG/1.1/DTD/svg11.dtd" >
<svg xmlns="http://www.w3.org/2000/svg" xmlns:xlink="http://www.w3.org/1999/xlink" version="1.1">
<metadata></metadata>
<defs>
<font id="chunkfiveregular" horiz-adv-x="1228" >
<font-face units-per-em="2048" ascent="1536" descent="-512" />
<missing-glyph horiz-adv-x="512" />
<glyph horiz-adv-x="0" />
<glyph horiz-adv-x="682" />
<glyph unicode=" "  horiz-adv-x="512" />
<glyph unicode="&#x09;" horiz-adv-x="512" />
<glyph unicode="&#xa0;" horiz-adv-x="512" />
<glyph unicode="!" horiz-adv-x="630" d="M57 209q0 83 65 150t169 67q106 0 175 -63.5t69 -153.5q0 -89 -67 -150t-177 -61q-97 0 -165.5 64.5t-68.5 146.5zM66 1042v390h489v-390l-109 -516h-270z" />
<glyph unicode="&#x22;" horiz-adv-x="1032" d="M72 1436h393l-62 -613h-256zM567 1436h394l-74 -613h-256z" />
<glyph unicode="#" horiz-adv-x="1536" d="M31 375v278h299l59 234h-246v278h316l96 375h270l-96 -375h275l96 375h270l-96 -375h231v-278h-301l-59 -234h248v-278h-320l-94 -377l-270 4l94 373h-275l-94 -377l-270 4l94 373h-227zM600 653h274l60 234h-275z" />
<glyph unicode="$" horiz-adv-x="1234" d="M31 35v493h321q0 -58 26.5 -98.5t69.5 -60t79 -27.5t73 -10q26 0 49 4t47.5 14t39 31t14.5 51q0 27 -28.5 50t-75.5 40.5t-107 40t-122 46t-122 61t-107 82.5t-75.5 113.5t-28.5 150.5q0 97 34 174.5t90 124t120 72t131 30.5v172h289v-213q76 -37 114 -100l17 115h299 v-480h-316q0 105 -64 166.5t-163 61.5q-44 0 -82.5 -28.5t-38.5 -76.5q0 -40 38 -72.5t99 -57.5t134.5 -51t147 -62t134.5 -82.5t99 -120t38 -166.5q0 -86 -27.5 -155t-72 -113t-105 -73.5t-122.5 -42t-129 -13.5v-211h-289v268q-54 29 -107 76l-22 -123h-299z" />
<glyph unicode="%" horiz-adv-x="1906" d="M31 1051q0 121 59.5 218t153.5 148t200 51q198 0 310 -114.5t112 -309.5q0 -185 -110 -301t-303 -116q-187 0 -304.5 115.5t-117.5 308.5zM336 1051q0 -104 37 -170t80 -66q47 0 76.5 62.5t29.5 166.5q0 101 -33 166.5t-80 65.5q-41 2 -75.5 -61t-34.5 -164zM387 0 l885 1432h233l-887 -1432h-231zM1040 424q0 121 59.5 218t154 148.5t200.5 51.5q198 0 310 -114.5t112 -309.5q0 -185 -110.5 -301.5t-303.5 -116.5q-187 0 -304.5 115.5t-117.5 308.5zM1346 424q0 -104 36.5 -170t79.5 -66q47 0 77 63t30 167q0 101 -33 166t-80 65 q-41 2 -75.5 -61t-34.5 -164z" />
<glyph unicode="&#x26;" horiz-adv-x="1579" d="M20 420q0 53 14.5 105t47.5 107.5t94 108.5t146 97q-64 41 -107 116t-43 154q0 64 32.5 126.5t88.5 112t139.5 79.5t177.5 30q92 0 168 -21t126.5 -56t86 -80.5t51 -93.5t15.5 -97q0 -58 -20.5 -108t-55.5 -86t-74 -61.5t-84 -43.5l191 -191q56 105 106 273h439v-258 h-201q-47 -136 -117 -242l127 -125h119v-266h-305l-133 131q-81 -74 -210.5 -116t-275.5 -42q-249 0 -396 126.5t-147 320.5zM403 432q0 -70 51 -113t115 -43q57 0 124.5 21.5t117.5 64.5l-260 256h-8q-53 -33 -96.5 -84t-43.5 -102zM506 1114q0 -96 123 -147 q7 -3 30.5 14.5t45.5 52t22 68.5q0 51 -29 88t-90 37q-44 0 -73 -35.5t-29 -77.5z" />
<glyph unicode="'" horiz-adv-x="559" d="M74 1436h405l-73 -613h-256z" />
<glyph unicode="(" horiz-adv-x="794" d="M51 639q0 138 34 278t86 251.5t118.5 213.5t126.5 170.5t116 116.5l211 -217q-35 -43 -49.5 -60.5t-55 -74t-62 -97.5t-54.5 -112t-50 -136.5t-30.5 -153.5t-13.5 -179q0 -131 22.5 -251t52.5 -203t78 -166t81.5 -127.5t80.5 -100.5l-211 -219q-69 63 -135 143 t-129.5 185.5t-111 219t-76.5 249t-29 270.5z" />
<glyph unicode=")" horiz-adv-x="794" d="M51 -211q47 56 80.5 100t82 127.5t78.5 166.5t52.5 203t22.5 251q0 72 -8.5 141.5t-19.5 125t-33 115.5t-37.5 99t-46 90.5t-45 75.5t-48 67.5t-41 53t-37.5 45.5l211 217q56 -48 116 -116.5t126.5 -170.5t118.5 -213.5t86 -251.5t34 -278q0 -135 -29 -270.5t-76.5 -249 t-111 -219t-129.5 -185.5t-135 -143z" />
<glyph unicode="*" horiz-adv-x="845" d="M10 1085l84 201l234 -108l-27 254h252l-33 -261l232 115l84 -201l-248 -81l184 -197l-186 -143l-162 227l-170 -234l-180 152l178 192z" />
<glyph unicode="+" horiz-adv-x="1120" d="M51 625v266h377v377h266v-377h375v-266h-375v-375h-266v375h-377z" />
<glyph unicode="," horiz-adv-x="557" d="M-12 -264q115 144 161.5 293.5t32.5 371.5l373 -98q6 -194 -82.5 -375.5t-249.5 -324.5z" />
<glyph unicode="-" horiz-adv-x="696" d="M51 352v273h594v-273h-594z" />
<glyph unicode="." horiz-adv-x="528" d="M31 213q0 87 63 160t168 73t170.5 -73.5t65.5 -159.5q0 -96 -62 -158.5t-174 -62.5q-98 0 -164.5 68t-66.5 153z" />
<glyph unicode="/" horiz-adv-x="1073" d="M10 -160l762 1700h291l-762 -1704z" />
<glyph unicode="0" horiz-adv-x="1226" d="M31 723q0 214 73 382t204.5 260.5t299.5 92.5q148 0 260.5 -53t184 -152t107.5 -235.5t36 -308.5q0 -344 -151 -539t-427 -195q-130 0 -236.5 46.5t-185 137.5t-122 235t-43.5 329zM436 723q0 -187 57.5 -308.5t124.5 -121.5q72 0 119 115.5t47 300.5q0 182 -51 300.5 t-127 118.5q-62 2 -116 -113t-54 -292z" />
<glyph unicode="1" horiz-adv-x="1015" d="M51 1163q8 4 37.5 18t38.5 18.5t35 18.5t38 22.5t36 24.5t41 31t40 36t45.5 46t47.5 54h364v-1160h191v-272h-820v272h205v760l-205 -96z" />
<glyph unicode="2" horiz-adv-x="1208" d="M51 0v297q83 135 140.5 201.5t158.5 146.5q43 38 116 88.5t122 84t87 79.5t38 90q0 135 -172 135q-39 0 -75.5 -13t-71.5 -41.5t-53.5 -46.5t-51.5 -54l-221 233q219 254 532 254q136 0 246.5 -53.5t175.5 -156.5t65 -238q0 -70 -14.5 -126t-36.5 -96t-68.5 -83.5 t-88.5 -73.5t-119 -80q-85 -54 -180 -136t-127 -139h360v164h344v-436h-1106z" />
<glyph unicode="3" horiz-adv-x="1105" d="M31 205l209 217q65 -65 127 -99t143 -34q87 0 135.5 40.5t48.5 116.5q0 150 -170 150h-153v244h149q76 0 125 37t49 104q0 78 -54 120t-126 42q-58 0 -122 -33t-118 -90l-198 240q66 72 188.5 133t249.5 61q247 0 384.5 -117.5t137.5 -316.5q0 -49 -15 -92t-42 -76.5 t-46.5 -52t-47.5 -39.5q190 -135 190 -336q0 -88 -32.5 -163t-87.5 -127t-128 -89t-154 -54.5t-165 -17.5q-141 0 -277.5 69.5t-199.5 162.5z" />
<glyph unicode="4" horiz-adv-x="1196" d="M20 403v293l590 736h424v-807h109v-222h-109v-133h111v-270h-664v270h129v133h-590zM307 625h303v379z" />
<glyph unicode="5" horiz-adv-x="1181" d="M31 221l223 232q70 -72 137.5 -112t149.5 -40q102 0 163.5 57.5t61.5 147.5q0 82 -61 140.5t-148 58.5q-44 0 -82.5 -16t-60.5 -33.5t-49 -45.5l-263 117l125 705h811v-306h-551l-34 -198q74 49 221 49q91 0 176 -32t152.5 -91t108 -153t40.5 -209q0 -100 -35 -185.5 t-95 -146t-138.5 -103.5t-166 -63.5t-177.5 -20.5q-150 0 -296 74.5t-212 173.5z" />
<glyph unicode="6" horiz-adv-x="1189" d="M33 623q-1 65 3 131t19.5 149.5t41.5 156.5t73 145.5t108.5 125t153.5 86.5t203 37q108 3 252 -43t231 -119l-139 -266q-53 31 -84 47.5t-94.5 36.5t-120.5 20q-110 -3 -181 -81t-87 -197q42 42 115.5 71.5t152.5 32.5q130 5 239.5 -50.5t174.5 -162.5t65 -243 q0 -138 -61.5 -253t-184 -187.5t-284.5 -77.5q-256 -8 -421.5 165t-174.5 476zM416 545q0 -40 11.5 -81t34 -78t60 -60t84.5 -23q78 0 133 51.5t54 124.5q-2 72 -42 128t-124 55q-64 -3 -121 -39.5t-90 -77.5z" />
<glyph unicode="7" horiz-adv-x="1159" d="M31 1026v406h1108v-273l-551 -1159h-443l549 1159h-336v-133h-327z" />
<glyph unicode="8" horiz-adv-x="1144" d="M31 420q0 103 61.5 206.5t159.5 153.5q-73 44 -113.5 119.5t-40.5 153.5q0 175 131.5 289t356.5 114q231 0 360 -113t129 -290q0 -96 -49.5 -170t-122.5 -109q100 -49 155.5 -147t55.5 -207q0 -193 -149 -320t-392 -127q-249 0 -395.5 126.5t-146.5 320.5zM385 432 q0 -71 56 -119.5t134 -48.5q80 0 134 43.5t55 124.5q0 50 -26.5 87.5t-69.5 56.5t-83 27.5t-81 10.5q-49 -28 -84 -78t-35 -104zM434 1069q0 -40 21 -68t56 -41.5t65 -19t61 -6.5q42 20 70 56t28 79q0 55 -45 92t-108 37q-60 0 -104 -39t-44 -90z" />
<glyph unicode="9" horiz-adv-x="1202" d="M31 936q0 138 61.5 253t184 187.5t284.5 77.5q126 4 235 -38.5t190.5 -124t130 -204.5t52.5 -274q2 -73 -3 -143.5t-21.5 -154t-44 -155.5t-75.5 -141.5t-111 -119.5t-155 -82t-204 -35q-109 -3 -252.5 42.5t-230.5 118.5l139 267q55 -32 84.5 -48t93.5 -36.5t121 -20.5 q117 3 184 75t66 204q-99 -99 -250 -105q-130 -5 -239.5 50.5t-174.5 163t-65 243.5zM397 956q2 -72 42 -127.5t124 -54.5q102 4 193 117q0 41 -9 81t-27.5 77.5t-53.5 60.5t-82 23q-78 0 -133 -52t-54 -125z" />
<glyph unicode=":" horiz-adv-x="520" d="M31 201q0 85 62 157t165 72t167 -72t64 -157q0 -92 -64.5 -154.5t-166.5 -62.5q-96 0 -161.5 67t-65.5 150zM31 823q0 85 62 157.5t165 72.5t167 -72.5t64 -157.5q0 -94 -62.5 -155.5t-168.5 -61.5q-93 0 -160 67.5t-67 149.5z" />
<glyph unicode=";" horiz-adv-x="618" d="M10 -264l236 -133q161 143 249.5 324.5t82.5 375.5l-373 98q14 -222 -33 -371.5t-162 -293.5zM121 788q0 87 63 160.5t168 73.5t170.5 -74t65.5 -160q0 -95 -64 -158t-172 -63q-94 0 -162.5 68.5t-68.5 152.5z" />
<glyph unicode="&#x3c;" horiz-adv-x="1124" d="M72 694v256l880 363l101 -250l-627 -240l627 -241l-101 -250z" />
<glyph unicode="=" horiz-adv-x="946" d="M51 352v273h844v-273h-844zM51 805v272h844v-272h-844z" />
<glyph unicode="&#x3e;" horiz-adv-x="1124" d="M72 584l626 239l-626 242l100 250l881 -363v-256l-881 -362z" />
<glyph unicode="?" horiz-adv-x="1064" d="M4 1200q109 127 245.5 195.5t287.5 68.5q138 0 247 -46.5t174.5 -143t65.5 -230.5q0 -54 -18 -102t-46.5 -83t-63.5 -66t-70 -56.5t-63.5 -49t-46.5 -48t-18 -49.5v-113h-379l-2 164q0 44 24 87.5t60.5 77t78.5 68t78.5 61.5t60.5 57.5t24 56.5q0 96 -151 96 q-61 0 -134.5 -49.5t-132.5 -118.5zM264 209q0 83 65 150t169 67q106 0 174.5 -63.5t68.5 -153.5q0 -89 -67 -150t-176 -61q-97 0 -165.5 64.5t-68.5 146.5z" />
<glyph unicode="@" horiz-adv-x="1595" d="M10 465q0 106 28 217.5t89.5 221.5t148.5 195.5t217 139t283 53.5q185 0 338.5 -57t256 -155.5t158.5 -231.5t56 -285q0 -47 -7.5 -96.5t-23 -104.5t-45 -103t-69.5 -87t-100 -61.5t-132 -22.5q-129 16 -184 68q-75 -55 -138.5 -77t-131.5 -22t-134.5 30.5t-119 83.5 t-85 133t-32.5 171q0 73 27.5 150t77.5 144.5t131.5 111t177.5 43.5q111 0 200 -107l13 82l202 -27l-82 -583q3 0 3 -2q40 -25 75 -25q58 0 101 30.5t64.5 79t31.5 96.5t10 95q0 116 -44.5 217t-125.5 176t-202 118.5t-267 43.5q-119 0 -220 -42.5t-168.5 -110.5 t-115 -154.5t-69 -174.5t-21.5 -171q0 -124 49.5 -237t133.5 -195.5t201.5 -131t248.5 -48.5q86 0 166.5 15.5t134 37.5t95 43.5t60.5 36.5l19 16l99 -141q-9 -7 -25 -19.5t-72 -43.5t-117.5 -54.5t-159.5 -43t-200 -19.5q-157 0 -303 57t-257 157.5t-178 249t-67 320.5z M608 475q0 -93 44.5 -153t101.5 -60q89 0 172 49l39 267q-69 141 -168 141q-85 0 -137 -78.5t-52 -165.5z" />
<glyph unicode="A" horiz-adv-x="1685" d="M31 0v268h139l276 899h-84v265h787l362 -1164h144v-268h-821v268h194l-43 140h-420l-43 -140h160v-268h-651zM641 653h268l-135 443z" />
<glyph unicode="B" horiz-adv-x="1406" d="M51 0v266h119v901h-119v265h764q251 0 376.5 -90.5t125.5 -260.5q0 -131 -43.5 -201.5t-157.5 -115.5q120 -33 195 -120t75 -228q0 -218 -131 -317t-426 -99h-778zM594 266h164q68 0 117 48t49 128q0 81 -45 131t-127 50h-158v-357zM594 854h125q78 0 108.5 39.5 t30.5 118.5q0 69 -37.5 109t-97.5 40h-129v-307z" />
<glyph unicode="C" horiz-adv-x="1404" d="M31 702q0 136 39 258.5t103 211t145 154t167.5 98t167.5 32.5q71 0 131.5 -17t98.5 -44t56.5 -44.5t29.5 -33.5l47 115h321v-582h-366q-5 109 -60 183.5t-157 74.5q-108 0 -176 -117.5t-68 -288.5q0 -104 33 -190t102.5 -140.5t163.5 -54.5q31 0 63 8t58 20.5t53 30.5 t46.5 34t40 36t31 32t22.5 26l12 14l239 -262q-115 -128 -273.5 -208.5t-346.5 -80.5q-328 0 -525.5 197.5t-197.5 537.5z" />
<glyph unicode="D" horiz-adv-x="1474" d="M51 0v272h127v889h-127v271h625q182 0 330 -54t245.5 -148t150 -221t52.5 -274q0 -351 -204.5 -543t-581.5 -192h-617zM598 272h78q105 2 175.5 65.5t101 164t30.5 233.5q0 85 -18 159.5t-53.5 135t-96.5 96t-139 35.5h-78v-889z" />
<glyph unicode="E" horiz-adv-x="1337" d="M51 0v272h129v889h-129v271h1235v-453h-354v182h-328v-282h389v-273h-389v-334h328v191h354v-463h-1235z" />
<glyph unicode="F" horiz-adv-x="1306" d="M51 0v272h127v889h-127v271h1225v-453h-363v182h-309v-356h389v-273h-389v-260h209v-272h-762z" />
<glyph unicode="G" horiz-adv-x="1589" d="M31 702q0 162 53.5 305t141 240t201 153t232.5 56q71 0 131 -11t97.5 -26t70.5 -37.5t48 -38t32.5 -36t20.5 -23.5l43 148h305v-605h-367q-4 120 -71 190t-162 70q-81 0 -146 -53.5t-100 -141.5t-35 -190q0 -162 75.5 -269t205.5 -107q80 0 125 26.5t72 73.5v86h-125v219 h680v-219h-82v-512h-410l-63 129q-36 -61 -126.5 -104t-203.5 -43q-134 0 -251.5 51t-204.5 142.5t-137 228t-50 298.5z" />
<glyph unicode="H" horiz-adv-x="1572" d="M51 0v270h113v891h-113v271h664v-271h-127v-309h389v309h-121v271h666v-271h-119v-891h119v-270h-666v270h121v310h-389v-310h127v-270h-664z" />
<glyph unicode="I" horiz-adv-x="782" d="M51 0v272h129v889h-129v271h680v-271h-127v-889h127v-272h-680z" />
<glyph unicode="J" horiz-adv-x="948" d="M41 -125q41 -18 92 -18q170 0 170 295v1011h-176v269h770v-269h-170v-1011q0 -139 -31 -242.5t-98.5 -178t-179.5 -112t-268 -37.5q-48 0 -107 23z" />
<glyph unicode="K" horiz-adv-x="1669" d="M51 0v266h111v901h-111v265h645v-265h-110v-333l381 333h-148v265h682v-265h-119l-297 -256l414 -645h119v-266h-799v266h139l-221 348l-151 -129v-219h110v-266h-645z" />
<glyph unicode="L" horiz-adv-x="1249" d="M51 0v272h113v889h-113v271h647v-271h-108v-889h264v260h344v-532h-1147z" />
<glyph unicode="M" horiz-adv-x="2064" d="M51 0v264h111v903h-109v265h776l207 -766l197 766h780v-265h-112v-901h112v-266h-647v266h117l-2 684v121h-8q-30 -174 -60 -274l-215 -797h-428l-229 817q-35 124 -43 254h-9v-807h117v-264h-555z" />
<glyph unicode="N" horiz-adv-x="1671" d="M51 0v264h121v903h-119v265h588l504 -752l-2 487h-139v265h616v-265h-135v-1167h-441l-522 780v-516h158v-264h-629z" />
<glyph unicode="O" horiz-adv-x="1515" d="M31 723q0 218 91 388.5t254.5 264.5t373.5 94q185 0 326 -54t230 -154t134 -239t45 -314q0 -350 -188.5 -548t-532.5 -198q-162 0 -295.5 47.5t-231.5 140t-152 238.5t-54 334zM537 723q0 -198 63.5 -318t163.5 -120q96 0 152.5 116t56.5 308q0 129 -22.5 226.5 t-74.5 158.5t-128 61h-2q-92 0 -150 -120q-59 -121 -59 -312z" />
<glyph unicode="P" horiz-adv-x="1310" d="M51 0v270h115v893h-115v269h664q138 0 240.5 -24t164 -63t98 -97.5t49.5 -118.5t13 -136q0 -130 -74.5 -223.5t-194.5 -137.5t-270 -44h-155v-318h125v-270h-660zM586 809h92q91 0 146 45t55 125q0 90 -50.5 138t-140.5 48h-102v-356z" />
<glyph unicode="Q" horiz-adv-x="1546" d="M31 725q0 315 190.5 514t497.5 199q178 0 312.5 -52t219 -148.5t126.5 -228.5t42 -298q0 -327 -170 -512q15 -60 35.5 -96.5t54.5 -36.5q41 0 41 92v59h136v-104q0 -143 -80 -235.5t-228 -92.5q-118 0 -199 64t-118 163q-74 -12 -160 -12q-156 0 -284 46t-221 135 t-144 227.5t-51 316.5zM481 725q0 -66 8 -113q95 99 242 99q118 0 230 -80q4 50 4 80q0 182 -68.5 305t-179.5 123h-3q-92 0 -162 -118q-71 -120 -71 -296zM594 375q62 -68 137 -68q58 0 109 45q-12 85 -36 128.5t-73 43.5q-84 0 -137 -149z" />
<glyph unicode="R" horiz-adv-x="1509" d="M51 0v270h115v893h-115v269h666q139 0 241 -22t164 -58.5t99 -93t50 -114.5t13 -134q0 -117 -83 -197.5t-214 -99.5q108 -15 188 -99t80 -192q0 -139 50 -139q47 0 47 65v68h137v-113q0 -53 -9 -99.5t-31 -89t-55.5 -73t-85.5 -48.5t-118 -18q-198 0 -297.5 99t-99.5 282 q0 75 -6 115.5t-28.5 69.5t-61.5 38t-109 9v-318h125v-270h-662zM588 817h92q91 0 144 43t53 123q0 90 -48.5 136t-138.5 46h-102v-348z" />
<glyph unicode="S" horiz-adv-x="1454" d="M51 0v516h381q0 -49 19 -86.5t46.5 -59t65 -35t67 -18.5t60.5 -6q43 0 78.5 7t65.5 31.5t30 64.5q0 25 -27 45.5t-72.5 36.5t-104.5 32t-124 36.5t-130 45.5t-124 63t-104.5 85.5t-72.5 116.5t-27 153q0 87 31.5 161.5t82 124.5t115 86t130.5 52t128 16q141 0 255.5 -50 t172.5 -158l21 172h352v-514h-371q0 110 -75 173.5t-187 63.5q-51 0 -96 -29t-45 -79q0 -33 27.5 -61.5t74.5 -50t108 -42t128.5 -43.5t134.5 -49.5t128 -64t108 -82.5t74.5 -109.5t27.5 -141.5q0 -92 -33.5 -167t-87.5 -124t-126 -82t-146 -47t-150 -14q-143 0 -251.5 54.5 t-176.5 134.5l-22 -158h-359z" />
<glyph unicode="T" horiz-adv-x="1435" d="M31 899v533h1374v-533h-301v262h-172v-889h170v-272h-762v272h168v889h-176v-262h-301z" />
<glyph unicode="U" horiz-adv-x="1509" d="M31 1165v267h651v-265h-111v-440q0 -99 9.5 -170.5t26 -116t43 -70t56 -35t70.5 -9.5q51 0 86.5 16t64 58t42.5 123t14 204v434h-111v271h607v-265h-111v-501q0 -363 -143.5 -532t-448.5 -169q-631 0 -631 701v499h-114z" />
<glyph unicode="V" horiz-adv-x="1583" d="M-20 1165v267h755l-2 -267h-110l174 -458q58 -175 63 -248h10q6 92 74 260l186 446h-106l-2 267h582v-267h-101l-491 -1165h-377l-543 1165h-112z" />
<glyph unicode="W" horiz-adv-x="2078" d="M-20 1165v267h675v-267h-118l53 -299q28 -117 65 -403h11q3 49 100 508l102 461h426l129 -566q41 -187 62 -403h10q6 65 26 193t35 198l70 311h-113v267h586v-267h-112l-306 -1165h-485l-123 487q-28 109 -51 254h-8q-12 -95 -49 -249l-125 -492h-475l-271 1165h-114z " />
<glyph unicode="X" horiz-adv-x="1710" d="M51 0v264h178l301 391l-370 510h-107v267h811v-267h-119l201 -272l209 272h-180v267h680v-267h-174l-310 -395l369 -504h119v-266h-817v266h116l-198 266l-211 -268h182v-264h-680z" />
<glyph unicode="Y" horiz-adv-x="1370" d="M-20 1169v263h700v-263h-107l119 -217q5 -17 32.5 -82t31.5 -84h8q3 14 13 39.5t18.5 44.5t24.5 52t20 41l112 206h-112v263h551v-263h-111l-379 -665v-238h115v-266h-656v266h117v242l-397 661h-100z" />
<glyph unicode="Z" horiz-adv-x="1462" d="M51 0v266l746 895l-387 -2l2 -266h-349v539h1344l4 -273l-749 -889h378l2 262h363v-532h-1354z" />
<glyph unicode="[" horiz-adv-x="638" d="M61 -412v2143h578v-258h-326v-1627h326v-258h-578z" />
<glyph unicode="\" horiz-adv-x="1073" d="M10 1540h291l762 -1700l-291 -4z" />
<glyph unicode="]" horiz-adv-x="638" d="M0 -154h326v1627h-326v258h578v-2143h-578v258z" />
<glyph unicode="^" horiz-adv-x="1222" d="M20 621l445 813h297l440 -813h-364l-224 458l-229 -458h-365z" />
<glyph unicode="_" horiz-adv-x="1431" d="M51 -2v170h1329v-170h-1329z" />
<glyph unicode="`" d="M102 1432l312 41l307 -236l-229 -41z" />
<glyph unicode="a" d="M31 303q0 112 58.5 199t155 132.5t212.5 45.5q55 0 103.5 -16.5t69.5 -31t29 -24.5v72q0 64 -51 89.5t-143 25.5q-133 0 -305 -95l-86 238q243 145 446 145q79 0 152.5 -11.5t148.5 -42t130 -76.5t89.5 -121t34.5 -170v-400h123v-262h-438l-49 92q-51 -70 -129 -100.5 t-148 -30.5q-60 0 -117 12.5t-109 39.5t-91 66.5t-62.5 97t-23.5 126.5zM420 324q0 -42 31 -69.5t77 -27.5q43 0 79.5 21t51.5 47v78q-35 59 -120 59q-59 0 -89 -29.5t-30 -78.5z" />
<glyph unicode="b" horiz-adv-x="1343" d="M63 0v266h87v1002h-87v268h496v-592q34 39 113 67.5t155 28.5q113 0 205 -45t150 -121q58 -74 88 -170q28 -90 28 -187v-13q-5 -239 -131.5 -383t-341.5 -144q-73 0 -127.5 14.5t-80.5 31t-62 47.5l-31 -70h-461zM555 489q0 -103 44 -174t103 -71q65 0 105.5 70t40.5 186 q0 62 -18 119.5t-52.5 95t-77.5 37.5q-63 0 -107 -73q-39 -64 -39 -163q0 -13 1 -27z" />
<glyph unicode="c" horiz-adv-x="1087" d="M2 518q0 131 41.5 233.5t112.5 165t160 94t190 31.5q157 0 256 -116l35 98h241v-463h-301q-2 55 -13.5 100t-41.5 80t-74 35q-86 0 -133 -77t-47 -185q0 -103 57.5 -172t153.5 -70h5q74 0 130 28q58 29 113 89l180 -209q-80 -87 -213.5 -148t-288.5 -61q-115 0 -215.5 35 t-178.5 101t-123.5 172t-45.5 239z" />
<glyph unicode="d" horiz-adv-x="1298" d="M20 522q0 116 39 215.5t104.5 166t152 103.5t180.5 37q51 0 93.5 -7.5t77.5 -23t48 -22.5t39 -24v303h-95v266h510v-1270h99v-266h-480l-34 76q-20 -18 -47.5 -36t-87 -38t-123.5 -20q-140 0 -250.5 76t-168 198.5t-57.5 265.5zM461 522q0 -98 41.5 -175t105.5 -77 t108 73q39 64 39 162q0 13 -1 27q0 103 -44.5 174.5t-103.5 71.5q-65 0 -105 -70t-40 -186z" />
<glyph unicode="e" horiz-adv-x="1110" d="M10 518q0 123 42.5 225t117 169t175 104t216.5 37q180 0 312.5 -82.5t177.5 -214.5q14 -40 22 -95q6 -40 6 -88q0 -17 -1 -37q-3 -70 -23 -126h-645q5 -23 10 -39t20 -43t35.5 -43.5t58.5 -29.5t87 -13q46 0 82 4.5t94.5 27.5t109.5 66l172 -199q-111 -96 -237.5 -137 t-290.5 -41q-79 0 -154 19.5t-146 63t-124 107t-85 157.5t-32 208zM416 612h309q-1 34 -6.5 59.5t-20.5 51t-46.5 39.5t-78.5 14q-44 0 -76 -17.5t-48 -46t-23.5 -52.5t-9.5 -48z" />
<glyph unicode="f" horiz-adv-x="790" d="M51 758v266h84v174q0 30 3 58t13 67t27 72t48.5 67t72.5 57.5t103.5 38.5t138.5 15q80 0 170.5 -15.5t130.5 -35.5l-123 -236q-48 21 -113 21t-65 -109v-174h186v-266h-186v-490h123v-268h-611v268h82v490h-84z" />
<glyph unicode="g" horiz-adv-x="1310" d="M20 518q0 243 133 384.5t382 141.5q64 0 123.5 -24.5t93.5 -58.5l41 63h487v-268h-123v-613q0 -262 -162 -412t-477 -151q-104 1 -203.5 32.5t-159.5 68.5t-106 79l109 228q49 -42 151 -86.5t205 -44.5q66 0 114.5 17.5t74 46.5t37.5 61t12 67v70q-32 -41 -93 -77 t-147 -36q-102 0 -186 28.5t-140 77t-94 115t-55 139t-17 152.5zM457 522q0 -98 41.5 -175t105.5 -77q63 0 108 73q39 64 39 162q0 13 -1 27q0 103 -44.5 174.5t-103.5 71.5q-65 0 -105 -70t-40 -186z" />
<glyph unicode="h" horiz-adv-x="1353" d="M51 0v268h86v1002h-86v266h496v-639q26 42 124.5 103t196.5 61q66 0 119.5 -14t90.5 -37.5t64.5 -59t43.5 -72.5t25.5 -85t12.5 -90t3 -93v-342h96v-268h-526v557q0 30 -1 48t-7 48.5t-18 48.5t-36 32t-59 14q-37 0 -63.5 -17t-40 -46t-19.5 -60.5t-6 -67.5v-289h147 v-268h-643z" />
<glyph unicode="i" horiz-adv-x="675" d="M51 0v268h86v490h-86v266h475v-756h99v-268h-574zM109 1323q0 78 60.5 143.5t160.5 65.5q99 0 162 -66t63 -143q0 -89 -60 -148t-165 -59q-93 0 -157 64.5t-64 142.5z" />
<glyph unicode="j" horiz-adv-x="737" d="M29 -154q48 0 86 11.5t62 28t41.5 44.5t25.5 50t12.5 56.5t5 52.5t0.5 48v6v615h-86v266h475v-881q0 -60 -5.5 -112t-22.5 -112t-45 -108t-75.5 -94t-111.5 -77t-156.5 -49.5t-205.5 -18.5v274zM233 1323q0 78 61 143.5t161 65.5q99 0 162 -66t63 -143q0 -89 -60 -148 t-165 -59q-93 0 -157.5 65t-64.5 142z" />
<glyph unicode="k" horiz-adv-x="1339" d="M78 0v266h84v1002h-84v268h473v-926l237 142h-147v270h573v-270h-157l-139 -88l276 -396h102v-268h-606v268h86l-155 221l-72 -49v-172h76v-268h-547z" />
<glyph unicode="l" horiz-adv-x="679" d="M51 0v268h88v1004h-86v264h475v-1268h121v-268h-598z" />
<glyph unicode="m" horiz-adv-x="1859" d="M51 0v268h86v484h-86v270h387l45 -121q127 150 256 150q59 0 108.5 -11.5t78.5 -25.5t56 -38.5t37 -37.5t25 -35q130 148 302 148q96 0 167 -28t111.5 -72t65 -111.5t32 -132.5t7.5 -148v-283h100v-276h-520v502q0 12 0.5 34t0.5 37.5v37.5t-2 37.5t-5 33.5t-9 30 t-14.5 23t-20.5 16t-28 5q-62 0 -85.5 -38.5t-23.5 -111.5v-332h123v-274h-530v522q0 48 -0.5 75.5t-3.5 58t-8.5 46t-15 30t-23.5 19.5t-35 5q-49 0 -70.5 -29.5t-21.5 -93.5v-365h122v-268h-608z" />
<glyph unicode="n" horiz-adv-x="1325" d="M51 0v268h86v490h-86v266h436l48 -127q120 164 292 164q92 0 160 -27t107.5 -69t63.5 -104t32 -121t8 -130v-342h96v-268h-516v559q0 89 -12 124q-26 66 -102 67q-37 0 -63.5 -17t-40 -46t-19.5 -60.5t-6 -67.5v-291h147v-268h-631z" />
<glyph unicode="o" horiz-adv-x="1175" d="M23 516q1 100 32 186.5t85 149t125 108t152.5 67.5t166.5 22q163 -2 289.5 -65t201.5 -186t78 -290v-6q0 -120 -42 -220q-43 -102 -119.5 -169t-178.5 -103.5t-219 -36.5q-112 0 -213.5 34.5t-183 100.5t-128.5 172q-46 103 -46 231v5zM442 514q0 -124 43 -201t109 -77 q64 0 101.5 76.5t37.5 195.5t-39.5 196t-109.5 78q-60 0 -101 -77.5t-41 -190.5z" />
<glyph unicode="p" horiz-adv-x="1306" d="M51 -150h86v902h-86v272h469l35 -72q118 88 248 88q116 0 209.5 -42.5t152.5 -116.5t90 -170.5t31 -206.5q0 -159 -62 -280t-167.5 -184t-237.5 -63q-59 0 -109.5 10t-83.5 26t-47.5 25.5t-25.5 18.5v-207h111v-268h-613v268zM553 489q0 -103 44 -174t103 -71 q65 0 105.5 70t40.5 186q0 62 -18 119.5t-52.5 95t-77.5 37.5q-63 0 -107 -73q-39 -64 -39 -163q0 -13 1 -27z" />
<glyph unicode="q" horiz-adv-x="1351" d="M51 518q0 129 38 231t105 165.5t155.5 96.5t191.5 33q89 0 156 -27t87 -54l39 61h477v-266h-100v-955h100v-274h-649v268h133v271q-42 -35 -110.5 -60.5t-151.5 -25.5q-98 0 -184 38t-149.5 106t-100.5 169.5t-37 222.5zM492 516q0 -103 44 -174.5t103 -71.5q65 0 105 70 t40 186q0 98 -41.5 175t-105.5 77q-63 0 -107 -72q-39 -64 -39 -163q0 -13 1 -27z" />
<glyph unicode="r" horiz-adv-x="847" d="M51 0v268h90v490h-88v266h385l62 -131q23 43 43 68.5t55 51t89 37t130 11.5v-354q-147 0 -218 -49.5t-71 -178.5v-211h103v-268h-580z" />
<glyph unicode="s" horiz-adv-x="1040" d="M31 0v369h274q0 -38 24.5 -67t61.5 -43.5t70.5 -21t60.5 -6.5q90 0 90 70q0 17 -16.5 30.5t-48.5 24.5t-66 20t-83.5 22t-86.5 26q-57 20 -102 45.5t-85.5 63.5t-62.5 94t-22 125q0 74 35.5 133.5t91 94t115.5 52t118 17.5q102 0 187.5 -46t118.5 -114l16 135h252v-369 h-266q0 63 -65 109.5t-144 46.5q-35 0 -57.5 -19t-22.5 -55q0 -16 12 -30t41 -27t52 -21.5t72.5 -24t74.5 -24.5q45 -15 68.5 -23.5t64 -26.5t63.5 -33.5t52 -41t44 -53t26 -66t11 -83.5q0 -139 -112.5 -223.5t-268.5 -84.5q-105 0 -189.5 43.5t-123.5 106.5l-18 -125h-256z " />
<glyph unicode="t" horiz-adv-x="743" d="M31 758v266h110v188l377 121v-309h195v-266h-195v-365q0 -9 -0.5 -31t-0.5 -33t1.5 -29.5t6 -28.5t11.5 -21t19 -16t29 -5q44 0 129 35v-262q-41 -17 -122 -28t-126 -11q-90 0 -151 22t-94 52t-50.5 94t-22 114.5t-6.5 147.5v365h-110z" />
<glyph unicode="u" horiz-adv-x="1292" d="M31 754v270h495v-494q0 -136 25 -197t86 -61q55 0 92 44t37 112v326h-135v270h530v-752h101v-272h-388l-55 129q-1 -1 -20.5 -24t-27.5 -30.5t-30 -28.5t-40.5 -30t-46 -22t-59 -18t-67.5 -5q-226 0 -318.5 119t-92.5 381v283h-86z" />
<glyph unicode="v" horiz-adv-x="1255" d="M0 764v260h623v-260h-103l94 -217q46 -134 54 -215h8q2 35 19 102t42 123l99 207h-109v260h528v-260h-106l-354 -764h-318l-381 764h-96z" />
<glyph unicode="w" horiz-adv-x="1785" d="M0 758v266h551v-266h-70l45 -150q20 -67 34 -154t18 -141h4q19 266 84 482l65 229h379l78 -266q60 -194 88 -445h4q17 192 55 324l35 121h-84v266h500v-266h-84l-240 -758h-432l-141 463l-148 -463h-422l-231 758h-88z" />
<glyph unicode="x" horiz-adv-x="1329" d="M41 0v254h137l209 235l-254 279h-92v256h664v-256h-97l144 -156l153 156h-137v256h522v-256h-135l-217 -219l258 -295h96v-254h-653v254h96l-155 166l-148 -166h133v-254h-524z" />
<glyph unicode="y" horiz-adv-x="1187" d="M-18 762v262h630v-260h-96l133 -320l133 320h-94v260h520v-254h-98l-389 -946q-23 -49 -40 -80t-54.5 -75.5t-79.5 -70.5t-111 -45q-67 -18 -147 -18h-8q-138 8 -248 103l153 241q67 -59 119 -69q9 -2 17 -2q34 0 62 26q35 33 52 84l29 86l-399 758h-84z" />
<glyph unicode="z" horiz-adv-x="1132" d="M51 0v268l494 492h-228v-146h-266v410h1014v-264l-487 -492h215v140h288v-408h-1030z" />
<glyph unicode="{" horiz-adv-x="643" d="M61 489v261q109 17 144 132.5t10 372.5q-22 235 100 365.5t328 130.5v-272q-30 0 -53 -4.5t-45 -16.5t-38 -32.5t-28 -53.5t-17.5 -78t-5 -107t8.5 -140q26 -265 -143 -426q169 -165 143 -428q-7 -92 -8.5 -160t9.5 -116t25.5 -78.5t40 -48t51 -24t60.5 -6.5v-272 q-206 0 -328 130.5t-100 365.5q25 257 -10 372.5t-144 132.5z" />
<glyph unicode="|" horiz-adv-x="681" d="M205 -418v1854h272v-1854h-272z" />
<glyph unicode="}" horiz-adv-x="643" d="M0 -240q35 0 60.5 6.5t51 24t40 48t25.5 78.5t9.5 116t-8.5 160q-26 262 144 428q-170 162 -144 426q8 78 8.5 140t-5 107t-17.5 78t-28 53.5t-38 32.5t-45 16.5t-53 4.5v272q206 0 328 -130.5t100 -365.5q-25 -257 10 -372.5t144 -132.5v-261q-109 -17 -144 -132.5 t-10 -372.5q22 -235 -100 -365.5t-328 -130.5v272z" />
<glyph unicode="&#xa1;" horiz-adv-x="630" d="M57 1221q0 82 68.5 146.5t165.5 64.5q110 0 177 -61t67 -150q0 -90 -69 -153.5t-175 -63.5q-104 0 -169 67t-65 150zM66 -2v389l110 516h270l109 -516v-389h-489z" />
<glyph unicode="&#xa2;" horiz-adv-x="1087" d="M2 518q0 131 41.5 233.5t112.5 165t160 94t190 31.5q64 0 119 -20l104 410h139l-123 -488q15 -15 17 -18l35 98h241v-463h-301q-4 116 -47 172l-115 -450q37 -11 64 -11q78 -1 135.5 28t112.5 89l180 -209q-80 -87 -213.5 -148t-288.5 -61q-21 0 -67 4l-68 -268h-139 l74 293q-164 52 -263.5 184t-99.5 334zM428 514q0 -73 33 -137l100 391q-64 -21 -98.5 -91.5t-34.5 -162.5z" />
<glyph unicode="&#xa3;" horiz-adv-x="1181" d="M0 623v202h145q-24 91 -24 181q0 135 65 238t175.5 156.5t246.5 53.5q314 0 533 -254l-221 -233q-33 36 -51.5 54t-53.5 46.5t-71.5 41.5t-75.5 13q-172 0 -172 -135q0 -55 43 -162h354v-202h-287q8 -58 8 -91q0 -113 -86 -260h244v164h344v-436h-1048v227q68 46 122 120 t54 167q0 30 -27 109h-217z" />
<glyph unicode="&#xa4;" horiz-adv-x="1253" d="M41 84l182 182q-83 122 -82.5 269.5t82.5 271.5l-182 182l133 133l182 -182q122 83 269.5 82.5t271.5 -82.5l182 182l133 -133l-182 -182q83 -122 82.5 -269.5t-82.5 -271.5l182 -182l-133 -133l-182 182q-122 -83 -269.5 -82.5t-271.5 82.5l-182 -182zM396.5 535.5 q-0.5 -96.5 66.5 -162.5q68 -66 165 -66.5t163 66.5q66 68 66.5 164.5t-66.5 162.5q-68 66 -165 66.5t-163 -66.5q-66 -68 -66.5 -164.5z" />
<glyph unicode="&#xa5;" horiz-adv-x="1370" d="M-20 1169v263h700v-263h-107l119 -217q5 -17 32.5 -82t31.5 -84h8q3 14 13 39.5t18.5 44.5t24.5 52t20 41l112 206h-112v263h551v-263h-111l-229 -403h209v-141h-289l-70 -121h359v-142h-359v-96h115v-266h-656v266h117v96h-340v142h340v4l-69 117h-271v141h185l-242 403 h-100z" />
<glyph unicode="&#xa6;" horiz-adv-x="681" d="M205 408h272v-826h-272v826zM205 711v725h272v-725h-272z" />
<glyph unicode="&#xa8;" d="M37 1245q0 59 43 102.5t104 43.5q60 0 104 -43.5t44 -102.5q0 -61 -44 -105t-104 -44q-61 0 -104 43.5t-43 105.5zM506 1245q0 59 44 102.5t105 43.5q60 0 103 -43.5t43 -102.5q0 -61 -43 -105t-103 -44q-61 0 -105 44t-44 105z" />
<glyph unicode="&#xa9;" horiz-adv-x="1509" d="M20 707q0 150 58.5 286t157 234.5t234.5 156.5t286 58q198 0 367 -98.5t267.5 -267.5t98.5 -369q0 -149 -58.5 -285.5t-156.5 -235t-234 -157t-284 -58.5q-150 0 -286 58.5t-234.5 157t-157 234.5t-58.5 286zM88 707q0 -182 89.5 -335.5t243 -243t335.5 -89.5 q181 0 334 89.5t242 243.5t89 335q0 136 -52.5 259.5t-142 213t-212.5 142t-258 52.5q-136 0 -259.5 -52.5t-213 -142t-142.5 -213t-53 -259.5zM348 713q0 95 30 169t81.5 119t115.5 68t136 23q108 0 186 -84l25 69h174v-334h-217q-1 40 -9.5 73t-30 58t-53.5 25 q-62 0 -96.5 -56t-34.5 -134q0 -74 41.5 -123.5t110.5 -50.5q101 -3 180 83l129 -149q-59 -64 -154.5 -108t-207.5 -44q-83 0 -155.5 25t-129 73.5t-89 125t-32.5 172.5z" />
<glyph unicode="&#xab;" horiz-adv-x="1167" d="M41 471l289 471h309l-289 -471l289 -471h-309zM508 471l289 471h309l-289 -471l289 -471h-309z" />
<glyph unicode="&#xad;" horiz-adv-x="696" d="M51 352v273h594v-273h-594z" />
<glyph unicode="&#xae;" horiz-adv-x="1026" d="M20 948q0 134 66.5 247.5t180 180t247.5 66.5q133 0 246.5 -66.5t179.5 -180t66 -247.5q0 -100 -39 -191.5t-105 -158t-157.5 -106t-190.5 -39.5q-134 0 -247.5 66.5t-180 180.5t-66.5 248zM78 948q0 -180 128 -307t308 -127q117 0 217 58t158.5 158t58.5 218t-58.5 218 t-158.5 158t-217 58q-180 0 -308 -127t-128 -307zM281 682v100h43v332h-43v98h247q122 0 166.5 -40.5t44.5 -114.5q0 -43 -31 -73t-79 -38q41 -6 70.5 -37t29.5 -71q0 -52 16 -52q19 0 19 25v25h51v-41q0 -53 -26 -87t-84 -34q-148 0 -148 141q0 53 -13.5 69.5t-62.5 16.5 v-119h45v-100h-245zM481 985h33q34 0 54 16.5t20 45.5q0 67 -70 67h-37v-129z" />
<glyph unicode="&#xaf;" d="M102 1219v170h922v-170h-922z" />
<glyph unicode="&#xb0;" horiz-adv-x="520" d="M41 1350q0 91 64 155t155 64q90 0 154.5 -64.5t64.5 -154.5q0 -89 -65 -153t-154 -64q-91 0 -155 64t-64 153zM143 1350q0 -46 34 -80.5t83 -34.5q46 0 80.5 34.5t34.5 80.5q0 47 -34.5 81.5t-80.5 34.5q-49 0 -83 -34t-34 -82z" />
<glyph unicode="&#xb4;" d="M102 1237l308 236l311 -41l-389 -236z" />
<glyph unicode="&#xb7;" horiz-adv-x="528" d="M31 680q0 87 63 160t168 73t170.5 -73.5t65.5 -159.5q0 -96 -62 -158.5t-174 -62.5q-98 0 -164.5 68t-66.5 153z" />
<glyph unicode="&#xb8;" d="M143 -401l101 96q21 -22 60.5 -33.5t78.5 -9.5q57 3 81.5 23t24.5 61q0 84 -77 84q-29 0 -54 -18.5t-28 -37.5l-133 25l20 240h107l-9 -144q11 20 46.5 43t89.5 27q90 6 155.5 -51.5t65.5 -157.5q0 -112 -85.5 -176t-195.5 -64q-82 0 -147 27t-101 66z" />
<glyph unicode="&#xbb;" horiz-adv-x="1175" d="M41 0l289 471l-289 471h309l289 -471l-289 -471h-309zM516 0l289 471l-289 471h309l289 -471l-289 -471h-309z" />
<glyph unicode="&#xbf;" horiz-adv-x="1064" d="M41 104q0 -101 37.5 -181.5t104 -132t154.5 -78.5t191 -27q151 0 287.5 68.5t245.5 195.5l-221 223q-59 -69 -132.5 -118.5t-134.5 -49.5q-151 0 -151 96q0 26 24 56.5t60.5 57.5t78.5 61.5t78.5 68t60.5 77t24 87.5l-3 164h-378v-113q0 -33 -33.5 -68t-81.5 -70 t-96 -76.5t-81.5 -104t-33.5 -136.5zM324 940q0 89 67 150t176 61q97 0 165.5 -64.5t68.5 -146.5q0 -83 -65 -150t-169 -67q-106 0 -174.5 63.5t-68.5 153.5z" />
<glyph unicode="&#xc0;" horiz-adv-x="1685" d="M31 0v268h139l276 899h-84v265h787l362 -1164h144v-268h-821v268h194l-43 140h-420l-43 -140h160v-268h-651zM535 1839l311 41l307 -235l-229 -41zM641 653h268l-135 443z" />
<glyph unicode="&#xc1;" horiz-adv-x="1685" d="M31 0v268h139l276 899h-84v265h787l362 -1164h144v-268h-821v268h194l-43 140h-420l-43 -140h160v-268h-651zM535 1645l307 235l311 -41l-389 -235zM641 653h268l-135 443z" />
<glyph unicode="&#xc2;" horiz-adv-x="1685" d="M31 0v268h139l276 899h-84v265h787l362 -1164h144v-268h-821v268h194l-43 140h-420l-43 -140h160v-268h-651zM471 1604l277 235h190l276 -235l-237 -72l-133 180l-135 -180zM641 653h268l-135 443z" />
<glyph unicode="&#xc3;" horiz-adv-x="1685" d="M31 0v268h139l276 899h-84v265h787l362 -1164h144v-268h-821v268h194l-43 140h-420l-43 -140h160v-268h-651zM487 1655q27 91 81.5 144t133.5 56q38 2 71.5 -12t56.5 -35t43 -42t41.5 -34.5t43.5 -11.5q28 3 58 44.5t39 66.5l143 -88q-27 -92 -82 -145t-135 -56 q-37 -1 -70 13t-56 35t-43.5 41.5t-42 34t-42.5 11.5q-28 -3 -60 -47t-34 -63zM641 653h268l-135 443z" />
<glyph unicode="&#xc4;" horiz-adv-x="1685" d="M31 0v268h139l276 899h-84v265h787l362 -1164h144v-268h-821v268h194l-43 140h-420l-43 -140h160v-268h-651zM461 1653q0 59 43 102t104 43q60 0 104 -43t44 -102q0 -61 -44 -105.5t-104 -44.5q-61 0 -104 44t-43 106zM641 653h268l-135 443zM930 1653q0 59 44 102 t105 43q60 0 103 -43t43 -102q0 -62 -43 -106t-103 -44q-61 0 -105 44t-44 106z" />
<glyph unicode="&#xc5;" horiz-adv-x="1685" d="M31 0v268h139l276 899h-84v265h787l362 -1164h144v-268h-821v268h194l-43 140h-420l-43 -140h160v-268h-651zM635 1702q0 86 61.5 147.5t147.5 61.5t147.5 -61.5t61.5 -147.5t-61.5 -147.5t-147.5 -61.5t-147.5 61.5t-61.5 147.5zM641 653h268l-135 443zM768 1702 q0 -31 22.5 -53.5t53.5 -22.5t53.5 22.5t22.5 53.5t-22.5 53.5t-53.5 22.5t-53.5 -22.5t-22.5 -53.5z" />
<glyph unicode="&#xc6;" horiz-adv-x="2211" d="M31 0v268h139l526 899h-84v265h1549v-453h-355v182h-327v-282h389v-273h-389v-334h327v191h355v-463h-1327v268h192v140h-422l-82 -140h160v-268h-651zM748 653h278v525z" />
<glyph unicode="&#xc7;" horiz-adv-x="1404" d="M31 702q0 136 39 258.5t103 211t145 154t167.5 98t167.5 32.5q71 0 131.5 -17t98.5 -44t56.5 -44.5t29.5 -33.5l47 115h321v-582h-366q-5 109 -60 183.5t-157 74.5q-108 0 -176 -117.5t-68 -288.5q0 -104 33 -190t102.5 -140.5t163.5 -54.5q31 0 63 8t58 20.5t53 30.5 t46.5 34t40 36t31 32t22.5 26l12 14l239 -262q-115 -128 -273.5 -208.5t-346.5 -80.5h-27l-4 -82q11 21 46 43.5t89 26.5q90 6 155.5 -51.5t65.5 -157.5q0 -112 -85 -176t-195 -64q-82 0 -147 27t-101 66l100 96q21 -22 61 -33.5t79 -9.5q57 3 81.5 23t24.5 61 q0 39 -19.5 61.5t-58.5 22.5q-29 0 -54 -18.5t-28 -37.5l-133 25l17 188q-272 39 -431 230.5t-159 494.5z" />
<glyph unicode="&#xc8;" horiz-adv-x="1337" d="M51 0v272h129v889h-129v271h1235v-453h-354v182h-328v-282h389v-273h-389v-334h328v191h354v-463h-1235zM360 1839l312 41l307 -235l-229 -41z" />
<glyph unicode="&#xc9;" horiz-adv-x="1337" d="M51 0v272h129v889h-129v271h1235v-453h-354v182h-328v-282h389v-273h-389v-334h328v191h354v-463h-1235zM360 1645l308 235l311 -41l-389 -235z" />
<glyph unicode="&#xca;" horiz-adv-x="1337" d="M51 0v272h129v889h-129v271h1235v-453h-354v182h-328v-282h389v-273h-389v-334h328v191h354v-463h-1235zM297 1604l276 235h191l276 -235l-237 -72l-133 180l-135 -180z" />
<glyph unicode="&#xcb;" horiz-adv-x="1337" d="M51 0v272h129v889h-129v271h1235v-453h-354v182h-328v-282h389v-273h-389v-334h328v191h354v-463h-1235zM287 1653q0 59 43 102t104 43q60 0 104 -43t44 -102q0 -61 -44 -105.5t-104 -44.5q-61 0 -104 44t-43 106zM756 1653q0 59 44 102t105 43q60 0 103 -43t43 -102 q0 -62 -43 -106t-103 -44q-61 0 -105 44t-44 106z" />
<glyph unicode="&#xcc;" horiz-adv-x="782" d="M51 0v272h129v889h-129v271h680v-271h-127v-889h127v-272h-680zM82 1839l311 41l307 -235l-229 -41z" />
<glyph unicode="&#xcd;" horiz-adv-x="782" d="M51 0v272h129v889h-129v271h680v-271h-127v-889h127v-272h-680zM82 1645l307 235l311 -41l-389 -235z" />
<glyph unicode="&#xce;" horiz-adv-x="782" d="M18 1604l277 235h190l277 -235l-238 -72l-133 180l-135 -180zM51 0v272h129v889h-129v271h680v-271h-127v-889h127v-272h-680z" />
<glyph unicode="&#xcf;" horiz-adv-x="782" d="M8 1653q0 59 43.5 102t104.5 43q60 0 103.5 -43t43.5 -102q0 -61 -43.5 -105.5t-103.5 -44.5q-61 0 -104.5 44t-43.5 106zM51 0v272h129v889h-129v271h680v-271h-127v-889h127v-272h-680zM477 1653q0 59 44.5 102t105.5 43q60 0 102.5 -43t42.5 -102q0 -62 -42.5 -106 t-102.5 -44q-61 0 -105.5 44.5t-44.5 105.5z" />
<glyph unicode="&#xd0;" horiz-adv-x="1474" d="M-10 569v271h188v321h-127v271h625q182 0 330 -54t245.5 -148t150 -221t52.5 -274q0 -351 -204.5 -543t-581.5 -192h-617v272h127v297h-188zM598 272h78q105 2 175.5 65.5t101 164t30.5 233.5q0 85 -18 159.5t-53.5 135t-96.5 96t-139 35.5h-78v-321h225v-271h-225v-297z " />
<glyph unicode="&#xd1;" horiz-adv-x="1671" d="M51 0v264h121v903h-119v265h588l504 -752l-2 487h-139v265h616v-265h-135v-1167h-441l-522 780v-516h158v-264h-629zM479 1655q27 91 81.5 144t133.5 56q38 2 71.5 -12t56.5 -35t43 -42t41.5 -34.5t43.5 -11.5q28 3 58 44.5t39 66.5l143 -88q-27 -92 -82 -145t-135 -56 q-37 -1 -70 13t-56 35t-43.5 41.5t-42 34t-42.5 11.5q-28 -3 -60 -47t-34 -63z" />
<glyph unicode="&#xd2;" horiz-adv-x="1515" d="M31 723q0 218 91 388.5t254.5 264.5t373.5 94q185 0 326 -54t230 -154t134 -239t45 -314q0 -350 -188.5 -548t-532.5 -198q-162 0 -295.5 47.5t-231.5 140t-152 238.5t-54 334zM449 1839l311 41l307 -235l-229 -41zM537 723q0 -198 63.5 -318t163.5 -120q96 0 152.5 116 t56.5 308q0 129 -22.5 226.5t-74.5 158.5t-128 61q-93 1 -152 -120t-59 -312z" />
<glyph unicode="&#xd3;" horiz-adv-x="1515" d="M31 723q0 218 91 388.5t254.5 264.5t373.5 94q185 0 326 -54t230 -154t134 -239t45 -314q0 -350 -188.5 -548t-532.5 -198q-162 0 -295.5 47.5t-231.5 140t-152 238.5t-54 334zM449 1645l307 235l311 -41l-389 -235zM537 723q0 -198 63.5 -318t163.5 -120q96 0 152.5 116 t56.5 308q0 129 -22.5 226.5t-74.5 158.5t-128 61q-93 1 -152 -120t-59 -312z" />
<glyph unicode="&#xd4;" horiz-adv-x="1515" d="M31 723q0 218 91 388.5t254.5 264.5t373.5 94q185 0 326 -54t230 -154t134 -239t45 -314q0 -350 -188.5 -548t-532.5 -198q-162 0 -295.5 47.5t-231.5 140t-152 238.5t-54 334zM385 1604l277 235h190l276 -235l-237 -72l-133 180l-135 -180zM537 723q0 -198 63.5 -318 t163.5 -120q96 0 152.5 116t56.5 308q0 129 -22.5 226.5t-74.5 158.5t-128 61q-93 1 -152 -120t-59 -312z" />
<glyph unicode="&#xd5;" horiz-adv-x="1515" d="M31 723q0 218 91 388.5t254.5 264.5t373.5 94q185 0 326 -54t230 -154t134 -239t45 -314q0 -350 -188.5 -548t-532.5 -198q-162 0 -295.5 47.5t-231.5 140t-152 238.5t-54 334zM401 1655q27 91 81.5 144t133.5 56q38 2 71.5 -12t56.5 -35t43 -42t41.5 -34.5t43.5 -11.5 q28 3 58 44.5t39 66.5l143 -88q-27 -92 -82 -145t-135 -56q-37 -1 -70 13t-56 35t-43.5 41.5t-42 34t-42.5 11.5q-28 -3 -60 -47t-34 -63zM537 723q0 -198 63.5 -318t163.5 -120q96 0 152.5 116t56.5 308q0 129 -22.5 226.5t-74.5 158.5t-128 61q-93 1 -152 -120t-59 -312z " />
<glyph unicode="&#xd6;" horiz-adv-x="1515" d="M31 723q0 218 91 388.5t254.5 264.5t373.5 94q185 0 326 -54t230 -154t134 -239t45 -314q0 -350 -188.5 -548t-532.5 -198q-162 0 -295.5 47.5t-231.5 140t-152 238.5t-54 334zM375 1653q0 59 43 102t104 43q60 0 104 -43t44 -102q0 -61 -44 -105.5t-104 -44.5 q-61 0 -104 44t-43 106zM537 723q0 -198 63.5 -318t163.5 -120q96 0 152.5 116t56.5 308q0 129 -22.5 226.5t-74.5 158.5t-128 61q-93 1 -152 -120t-59 -312zM844 1653q0 59 44 102t105 43q60 0 103 -43t43 -102q0 -62 -43 -106t-103 -44q-61 0 -105 44t-44 106z" />
<glyph unicode="&#xd8;" horiz-adv-x="1515" d="M31 723q0 218 91 388.5t254.5 264.5t373.5 94q218 0 374 -75l76 112l205 -73l-109 -162q189 -198 189 -563q0 -350 -188.5 -548t-532.5 -198q-174 0 -313 53l-74 -108l-205 74l96 141q-237 198 -237 600zM537 723q0 -94 16 -176l346 514q-56 94 -151 94q-93 1 -152 -120 t-59 -312zM659 328q46 -43 105 -43q96 0 152.5 116t56.5 308q0 52 -2 79z" />
<glyph unicode="&#xd9;" horiz-adv-x="1509" d="M31 1165v267h651v-265h-111v-440q0 -99 9.5 -170.5t26 -116t43 -70t56 -35t70.5 -9.5q51 0 86.5 16t64 58t42.5 123t14 204v434h-111v271h607v-265h-111v-501q0 -363 -143.5 -532t-448.5 -169q-631 0 -631 701v499h-114zM467 1839l311 41l307 -235l-229 -41z" />
<glyph unicode="&#xda;" horiz-adv-x="1509" d="M31 1165v267h651v-265h-111v-440q0 -99 9.5 -170.5t26 -116t43 -70t56 -35t70.5 -9.5q51 0 86.5 16t64 58t42.5 123t14 204v434h-111v271h607v-265h-111v-501q0 -363 -143.5 -532t-448.5 -169q-631 0 -631 701v499h-114zM467 1645l307 235l311 -41l-389 -235z" />
<glyph unicode="&#xdb;" horiz-adv-x="1509" d="M31 1165v267h651v-265h-111v-440q0 -99 9.5 -170.5t26 -116t43 -70t56 -35t70.5 -9.5q51 0 86.5 16t64 58t42.5 123t14 204v434h-111v271h607v-265h-111v-501q0 -363 -143.5 -532t-448.5 -169q-631 0 -631 701v499h-114zM403 1604l277 235h190l277 -235l-238 -72 l-133 180l-135 -180z" />
<glyph unicode="&#xdc;" horiz-adv-x="1509" d="M31 1165v267h651v-265h-111v-440q0 -99 9.5 -170.5t26 -116t43 -70t56 -35t70.5 -9.5q51 0 86.5 16t64 58t42.5 123t14 204v434h-111v271h607v-265h-111v-501q0 -363 -143.5 -532t-448.5 -169q-631 0 -631 701v499h-114zM393 1653q0 59 43.5 102t104.5 43q60 0 103.5 -43 t43.5 -102q0 -61 -43.5 -105.5t-103.5 -44.5q-61 0 -104.5 44t-43.5 106zM862 1653q0 59 44.5 102t105.5 43q60 0 102.5 -43t42.5 -102q0 -62 -42.5 -106t-102.5 -44q-62 0 -106 44.5t-44 105.5z" />
<glyph unicode="&#xdd;" horiz-adv-x="1370" d="M-20 1169v263h700v-263h-107l119 -217q5 -17 32.5 -82t31.5 -84h8q3 14 13 39.5t18.5 44.5t24.5 52t20 41l112 206h-112v263h551v-263h-111l-379 -665v-238h115v-266h-656v266h117v242l-397 661h-100zM377 1645l307 235l311 -41l-389 -235z" />
<glyph unicode="&#xde;" horiz-adv-x="1447" d="M51 0v272h232v889h-232v271h885v-271h-229v-78h270q130 0 218.5 -23t139 -70t71.5 -108.5t21 -148.5q0 -94 -22 -162.5t-72 -119.5t-137.5 -76t-212.5 -25h-276v-78h229v-272h-885zM707 625h92q117 0 166 21.5t49 82.5t-47 84t-170 23h-90v-211z" />
<glyph unicode="&#xdf;" horiz-adv-x="1470" d="M51 0v272h129v680q0 127 31.5 228t87 169.5t135 113.5t172 65t201.5 20q152 0 271.5 -55t189 -159.5t69.5 -243.5q0 -214 -192 -306q122 -51 198 -143.5t76 -232.5q0 -451 -508 -451q-50 0 -101.5 8.5t-78.5 16.5t-29 10v291q6 -4 21 -10.5t48.5 -14.5t66.5 -8 q47 0 80.5 12.5t52 30.5t29 47t13.5 53.5t3 57.5q0 98 -57.5 162.5t-157.5 70.5v201q95 21 144.5 80t49.5 131q0 56 -54 98.5t-128 42.5q-28 0 -53.5 -5t-55 -20.5t-51 -40.5t-35.5 -69.5t-14 -102.5v-999h-553z" />
<glyph unicode="&#xe0;" d="M31 303q0 112 58.5 199t155 132.5t212.5 45.5q55 0 103.5 -16.5t69.5 -31t29 -24.5v72q0 64 -51 89.5t-143 25.5q-133 0 -305 -95l-86 238q243 145 446 145q79 0 152.5 -11.5t148.5 -42t130 -76.5t89.5 -121t34.5 -170v-400h123v-262h-438l-49 92q-51 -70 -129 -100.5 t-148 -30.5q-60 0 -117 12.5t-109 39.5t-91 66.5t-62.5 97t-23.5 126.5zM305 1432l311 41l308 -236l-230 -41zM420 324q0 -42 31 -69.5t77 -27.5q43 0 79.5 21t51.5 47v78q-35 59 -120 59q-59 0 -89 -29.5t-30 -78.5z" />
<glyph unicode="&#xe1;" d="M31 303q0 112 58.5 199t155 132.5t212.5 45.5q55 0 103.5 -16.5t69.5 -31t29 -24.5v72q0 64 -51 89.5t-143 25.5q-133 0 -305 -95l-86 238q243 145 446 145q79 0 152.5 -11.5t148.5 -42t130 -76.5t89.5 -121t34.5 -170v-400h123v-262h-438l-49 92q-51 -70 -129 -100.5 t-148 -30.5q-60 0 -117 12.5t-109 39.5t-91 66.5t-62.5 97t-23.5 126.5zM305 1237l307 236l312 -41l-389 -236zM420 324q0 -42 31 -69.5t77 -27.5q43 0 79.5 21t51.5 47v78q-35 59 -120 59q-59 0 -89 -29.5t-30 -78.5z" />
<glyph unicode="&#xe2;" d="M31 303q0 112 58.5 199t155 132.5t212.5 45.5q55 0 103.5 -16.5t69.5 -31t29 -24.5v72q0 64 -51 89.5t-143 25.5q-133 0 -305 -95l-86 238q243 145 446 145q79 0 152.5 -11.5t148.5 -42t130 -76.5t89.5 -121t34.5 -170v-400h123v-262h-438l-49 92q-51 -70 -129 -100.5 t-148 -30.5q-60 0 -117 12.5t-109 39.5t-91 66.5t-62.5 97t-23.5 126.5zM242 1196l276 236h191l276 -236l-237 -72l-134 181l-135 -181zM420 324q0 -42 31 -69.5t77 -27.5q43 0 79.5 21t51.5 47v78q-35 59 -120 59q-59 0 -89 -29.5t-30 -78.5z" />
<glyph unicode="&#xe3;" d="M31 303q0 112 58.5 199t155 132.5t212.5 45.5q55 0 103.5 -16.5t69.5 -31t29 -24.5v72q0 64 -51 89.5t-143 25.5q-133 0 -305 -95l-86 238q243 145 446 145q79 0 152.5 -11.5t148.5 -42t130 -76.5t89.5 -121t34.5 -170v-400h123v-262h-438l-49 92q-51 -70 -129 -100.5 t-148 -30.5q-60 0 -117 12.5t-109 39.5t-91 66.5t-62.5 97t-23.5 126.5zM258 1247q27 91 81.5 144.5t133.5 56.5q38 2 71.5 -12t56.5 -35t43 -42t41.5 -34.5t43.5 -11.5q28 3 57.5 44t38.5 66l144 -88q-27 -91 -81.5 -144t-135.5 -56q-37 -1 -70 13t-56 35t-43.5 41.5 t-42 34t-42.5 11.5q-28 -3 -60.5 -48t-34.5 -63zM420 324q0 -42 31 -69.5t77 -27.5q43 0 79.5 21t51.5 47v78q-35 59 -120 59q-59 0 -89 -29.5t-30 -78.5z" />
<glyph unicode="&#xe4;" d="M31 303q0 112 58.5 199t155 132.5t212.5 45.5q55 0 103.5 -16.5t69.5 -31t29 -24.5v72q0 64 -51 89.5t-143 25.5q-133 0 -305 -95l-86 238q243 145 446 145q79 0 152.5 -11.5t148.5 -42t130 -76.5t89.5 -121t34.5 -170v-400h123v-262h-438l-49 92q-51 -70 -129 -100.5 t-148 -30.5q-60 0 -117 12.5t-109 39.5t-91 66.5t-62.5 97t-23.5 126.5zM231 1245q0 59 43.5 102.5t104.5 43.5q60 0 103.5 -43.5t43.5 -102.5q0 -61 -43.5 -105t-103.5 -44q-61 0 -104.5 43.5t-43.5 105.5zM420 324q0 -42 31 -69.5t77 -27.5q43 0 79.5 21t51.5 47v78 q-35 59 -120 59q-59 0 -89 -29.5t-30 -78.5zM700 1245q0 59 44.5 102.5t105.5 43.5q60 0 102.5 -43.5t42.5 -102.5q0 -62 -42.5 -105.5t-102.5 -43.5q-62 0 -106 44t-44 105z" />
<glyph unicode="&#xe5;" d="M31 303q0 112 58.5 199t155 132.5t212.5 45.5q55 0 103.5 -16.5t69.5 -31t29 -24.5v72q0 64 -51 89.5t-143 25.5q-133 0 -305 -95l-86 238q243 145 446 145q79 0 152.5 -11.5t148.5 -42t130 -76.5t89.5 -121t34.5 -170v-400h123v-262h-438l-49 92q-51 -70 -129 -100.5 t-148 -30.5q-60 0 -117 12.5t-109 39.5t-91 66.5t-62.5 97t-23.5 126.5zM406 1294q0 86 61 147.5t147 61.5t147.5 -61.5t61.5 -147.5t-61.5 -147.5t-147.5 -61.5t-147 61.5t-61 147.5zM420 324q0 -42 31 -69.5t77 -27.5q43 0 79.5 21t51.5 47v78q-35 59 -120 59 q-59 0 -89 -29.5t-30 -78.5zM539 1294q0 -31 22 -53t53 -22t53.5 22t22.5 53t-22.5 53.5t-53.5 22.5t-53 -22.5t-22 -53.5z" />
<glyph unicode="&#xe6;" horiz-adv-x="1798" d="M31 303q0 112 58.5 199t155 132.5t212.5 45.5q55 0 103.5 -16.5t69.5 -31t29 -24.5v72q0 64 -51 89.5t-143 25.5q-133 0 -305 -95l-86 238q243 145 446 145q234 0 375 -127q142 97 334 97q180 0 312 -82.5t177 -214.5q14 -40 22 -95t5 -125.5t-23 -125.5h-645 q5 -23 10 -39t20 -43t35.5 -43.5t58.5 -29.5t87 -13q169 0 287 98l172 -199q-111 -96 -237.5 -137t-290.5 -41q-99 0 -194 32.5t-171 96.5q-164 -131 -420 -131q-60 0 -117 12.5t-109 39.5t-91 66.5t-62.5 97t-23.5 126.5zM420 324q0 -42 31 -69.5t77 -27.5q43 0 79.5 21 t51.5 47v78q-35 59 -120 59q-59 0 -89 -29.5t-30 -78.5zM1083 612h310q-1 34 -6.5 59.5t-20.5 51t-46.5 39.5t-78.5 14q-36 0 -64 -12.5t-44.5 -30.5t-28 -41.5t-16 -42.5t-5.5 -37z" />
<glyph unicode="&#xe7;" horiz-adv-x="1087" d="M2 518q0 131 41.5 233.5t112.5 165t160 94t190 31.5q157 0 256 -116l35 98h241v-463h-301q-2 55 -13.5 100t-41.5 80t-74 35q-86 0 -133 -77t-47 -185q0 -103 57.5 -172t153.5 -70q78 -1 135.5 28t112.5 89l180 -209q-80 -86 -212 -147t-286 -62l-4 -86q11 21 46 43.5 t89 26.5q90 6 156 -51.5t66 -157.5q0 -112 -85.5 -176t-195.5 -64q-82 0 -147 27t-101 66l101 96q21 -22 60.5 -33.5t78.5 -9.5q57 3 81.5 23t24.5 61q0 84 -77 84q-29 0 -54 -18.5t-28 -37.5l-134 25l17 191q-98 14 -180.5 55t-146 106.5t-99 162.5t-35.5 214z" />
<glyph unicode="&#xe8;" horiz-adv-x="1110" d="M10 518q0 123 42.5 225t117 169t175 104t216.5 37q180 0 312.5 -82.5t177.5 -214.5q14 -40 22 -95t5 -125.5t-23 -125.5h-645q5 -23 10 -39t20 -43t35.5 -43.5t58.5 -29.5t87 -13q46 0 82 4.5t94.5 27.5t109.5 66l172 -199q-111 -96 -237.5 -137t-290.5 -41 q-79 0 -154 19.5t-146 63t-124 107t-85 157.5t-32 208zM246 1432l311 41l307 -236l-229 -41zM416 612h309q-1 34 -6.5 59.5t-20.5 51t-46.5 39.5t-78.5 14q-44 0 -76 -17.5t-48 -46t-23.5 -52.5t-9.5 -48z" />
<glyph unicode="&#xe9;" horiz-adv-x="1110" d="M10 518q0 123 42.5 225t117 169t175 104t216.5 37q180 0 312.5 -82.5t177.5 -214.5q14 -40 22 -95t5 -125.5t-23 -125.5h-645q5 -23 10 -39t20 -43t35.5 -43.5t58.5 -29.5t87 -13q46 0 82 4.5t94.5 27.5t109.5 66l172 -199q-111 -96 -237.5 -137t-290.5 -41 q-79 0 -154 19.5t-146 63t-124 107t-85 157.5t-32 208zM246 1237l307 236l311 -41l-389 -236zM416 612h309q-1 34 -6.5 59.5t-20.5 51t-46.5 39.5t-78.5 14q-44 0 -76 -17.5t-48 -46t-23.5 -52.5t-9.5 -48z" />
<glyph unicode="&#xea;" horiz-adv-x="1110" d="M10 518q0 123 42.5 225t117 169t175 104t216.5 37q180 0 312.5 -82.5t177.5 -214.5q14 -40 22 -95t5 -125.5t-23 -125.5h-645q5 -23 10 -39t20 -43t35.5 -43.5t58.5 -29.5t87 -13q46 0 82 4.5t94.5 27.5t109.5 66l172 -199q-111 -96 -237.5 -137t-290.5 -41 q-79 0 -154 19.5t-146 63t-124 107t-85 157.5t-32 208zM182 1196l277 236h190l277 -236l-238 -72l-133 181l-135 -181zM416 612h309q-1 34 -6.5 59.5t-20.5 51t-46.5 39.5t-78.5 14q-44 0 -76 -17.5t-48 -46t-23.5 -52.5t-9.5 -48z" />
<glyph unicode="&#xeb;" horiz-adv-x="1110" d="M10 518q0 123 42.5 225t117 169t175 104t216.5 37q180 0 312.5 -82.5t177.5 -214.5q14 -40 22 -95t5 -125.5t-23 -125.5h-645q5 -23 10 -39t20 -43t35.5 -43.5t58.5 -29.5t87 -13q46 0 82 4.5t94.5 27.5t109.5 66l172 -199q-111 -96 -237.5 -137t-290.5 -41 q-79 0 -154 19.5t-146 63t-124 107t-85 157.5t-32 208zM172 1245q0 59 43 102.5t104 43.5q60 0 104 -43.5t44 -102.5q0 -61 -44 -105t-104 -44q-61 0 -104 43.5t-43 105.5zM416 612h309q-1 34 -6.5 59.5t-20.5 51t-46.5 39.5t-78.5 14q-44 0 -76 -17.5t-48 -46t-23.5 -52.5 t-9.5 -48zM641 1245q0 59 44.5 102.5t105.5 43.5q60 0 102.5 -43.5t42.5 -102.5q0 -62 -42.5 -105.5t-102.5 -43.5q-62 0 -106 44t-44 105z" />
<glyph unicode="&#xec;" horiz-adv-x="675" d="M29 1432l311 41l307 -236l-229 -41zM51 0v268h86v490h-86v266h475v-756h99v-268h-574z" />
<glyph unicode="&#xed;" horiz-adv-x="675" d="M29 1237l307 236l311 -41l-389 -236zM51 0v268h86v490h-86v266h475v-756h99v-268h-574z" />
<glyph unicode="&#xee;" horiz-adv-x="675" d="M-35 1196l277 236h190l277 -236l-238 -72l-133 181l-135 -181zM51 0v268h86v490h-86v266h475v-756h99v-268h-574z" />
<glyph unicode="&#xef;" horiz-adv-x="675" d="M-45 1245q0 59 43 102.5t104 43.5q60 0 104 -43.5t44 -102.5q0 -61 -44 -105t-104 -44q-61 0 -104 43.5t-43 105.5zM51 0v268h86v490h-86v266h475v-756h99v-268h-574zM424 1245q0 59 44 102.5t105 43.5q60 0 103 -43.5t43 -102.5q0 -61 -43 -105t-103 -44q-61 0 -105 44 t-44 105z" />
<glyph unicode="&#xf0;" horiz-adv-x="1193" d="M23 516q1 100 32 186.5t85 149t125 108t152.5 67.5t166.5 22q63 0 133 -13q-24 142 -160 226l-92 -148l-125 74l84 135q-72 24 -141 33l120 233q74 -13 160 -41l60 99l125 -74l-50 -80q131 -65 221.5 -163t140.5 -227t71.5 -271.5t21.5 -323.5q1 -124 -42 -226.5 t-119.5 -169t-178.5 -103t-219 -36.5q-112 0 -213.5 34.5t-183 100.5t-128.5 171.5t-46 236.5zM442 514q0 -124 43 -201t109 -77q64 0 101.5 76.5t37.5 195.5t-39.5 196t-109.5 78q-60 0 -101 -77.5t-41 -190.5z" />
<glyph unicode="&#xf1;" horiz-adv-x="1325" d="M51 0v268h86v490h-86v266h436l48 -127q120 164 292 164q92 0 160 -27t107.5 -69t63.5 -104t32 -121t8 -130v-342h96v-268h-516v559q0 89 -12 124q-26 66 -102 67q-37 0 -63.5 -17t-40 -46t-19.5 -60.5t-6 -67.5v-291h147v-268h-631zM307 1247q27 91 81.5 144.5 t133.5 56.5q38 2 71.5 -12t56.5 -35t43 -42t41.5 -34.5t43.5 -11.5q28 3 57.5 44t38.5 66l144 -88q-27 -91 -81.5 -144t-135.5 -56q-37 -1 -70 13t-56 35t-43.5 41.5t-42 34t-42.5 11.5q-28 -3 -60 -47.5t-34 -63.5z" />
<glyph unicode="&#xf2;" horiz-adv-x="1175" d="M23 516q1 100 32 186.5t85 149t125 108t152.5 67.5t166.5 22q163 -2 289.5 -65t201.5 -186t78 -290q1 -124 -42 -226.5t-119.5 -169t-178.5 -103t-219 -36.5q-112 0 -213.5 34.5t-183 100.5t-128.5 171.5t-46 236.5zM279 1432l311 41l307 -236l-229 -41zM442 514 q0 -124 43 -201t109 -77q64 0 101.5 76.5t37.5 195.5t-39.5 196t-109.5 78q-60 0 -101 -77.5t-41 -190.5z" />
<glyph unicode="&#xf3;" horiz-adv-x="1175" d="M23 516q1 100 32 186.5t85 149t125 108t152.5 67.5t166.5 22q163 -2 289.5 -65t201.5 -186t78 -290q1 -124 -42 -226.5t-119.5 -169t-178.5 -103t-219 -36.5q-112 0 -213.5 34.5t-183 100.5t-128.5 171.5t-46 236.5zM279 1237l307 236l311 -41l-389 -236zM442 514 q0 -124 43 -201t109 -77q64 0 101.5 76.5t37.5 195.5t-39.5 196t-109.5 78q-60 0 -101 -77.5t-41 -190.5z" />
<glyph unicode="&#xf4;" horiz-adv-x="1175" d="M23 516q1 100 32 186.5t85 149t125 108t152.5 67.5t166.5 22q163 -2 289.5 -65t201.5 -186t78 -290q1 -124 -42 -226.5t-119.5 -169t-178.5 -103t-219 -36.5q-112 0 -213.5 34.5t-183 100.5t-128.5 171.5t-46 236.5zM215 1196l277 236h190l276 -236l-237 -72l-133 181 l-135 -181zM442 514q0 -124 43 -201t109 -77q64 0 101.5 76.5t37.5 195.5t-39.5 196t-109.5 78q-60 0 -101 -77.5t-41 -190.5z" />
<glyph unicode="&#xf5;" horiz-adv-x="1175" d="M23 516q1 100 32 186.5t85 149t125 108t152.5 67.5t166.5 22q163 -2 289.5 -65t201.5 -186t78 -290q1 -124 -42 -226.5t-119.5 -169t-178.5 -103t-219 -36.5q-112 0 -213.5 34.5t-183 100.5t-128.5 171.5t-46 236.5zM231 1247q27 91 81.5 144.5t133.5 56.5q38 2 71.5 -12 t56.5 -35t43 -42t41.5 -34.5t43.5 -11.5q28 3 58 44.5t39 65.5l143 -88q-27 -91 -81.5 -144t-135.5 -56q-37 -1 -70 13t-56 35t-43.5 41.5t-42 34t-42.5 11.5q-28 -3 -60 -47.5t-34 -63.5zM442 514q0 -124 43 -201t109 -77q64 0 101.5 76.5t37.5 195.5t-39.5 196t-109.5 78 q-60 0 -101 -77.5t-41 -190.5z" />
<glyph unicode="&#xf6;" horiz-adv-x="1175" d="M23 516q1 100 32 186.5t85 149t125 108t152.5 67.5t166.5 22q163 -2 289.5 -65t201.5 -186t78 -290q1 -124 -42 -226.5t-119.5 -169t-178.5 -103t-219 -36.5q-112 0 -213.5 34.5t-183 100.5t-128.5 171.5t-46 236.5zM205 1245q0 59 43 102.5t104 43.5q60 0 104 -43.5 t44 -102.5q0 -61 -44 -105t-104 -44q-61 0 -104 43.5t-43 105.5zM442 514q0 -124 43 -201t109 -77q64 0 101.5 76.5t37.5 195.5t-39.5 196t-109.5 78q-60 0 -101 -77.5t-41 -190.5zM674 1245q0 59 44 102.5t105 43.5q60 0 103 -43.5t43 -102.5q0 -61 -43 -105t-103 -44 q-61 0 -105 44t-44 105z" />
<glyph unicode="&#xf8;" horiz-adv-x="1175" d="M23 516q1 100 32 186.5t85 149t125 108t152.5 67.5t166.5 22q140 -3 247 -48l70 103l152 -55l-86 -127q180 -144 186 -414q1 -124 -42 -226.5t-119.5 -169t-178.5 -103t-219 -36.5q-125 0 -238 43l-71 -108l-154 55l86 129q-92 71 -143.5 178t-50.5 246zM442 514 q0 -35 7 -82l213 316q-34 34 -78 34q-60 0 -101 -77.5t-41 -190.5zM524 264q31 -28 70 -28q64 0 101.5 76.5t37.5 195.5q0 41 -2 61z" />
<glyph unicode="&#xf9;" horiz-adv-x="1292" d="M31 754v270h495v-494q0 -136 25 -197t86 -61q55 0 92 44t37 112v326h-135v270h530v-752h101v-272h-388l-55 129q-1 -1 -20.5 -24t-27.5 -30.5t-30 -28.5t-40.5 -30t-46 -22t-59 -18t-67.5 -5q-226 0 -318.5 119t-92.5 381v283h-86zM338 1432l311 41l307 -236l-229 -41z " />
<glyph unicode="&#xfa;" horiz-adv-x="1292" d="M31 754v270h495v-494q0 -136 25 -197t86 -61q55 0 92 44t37 112v326h-135v270h530v-752h101v-272h-388l-55 129q-1 -1 -20.5 -24t-27.5 -30.5t-30 -28.5t-40.5 -30t-46 -22t-59 -18t-67.5 -5q-226 0 -318.5 119t-92.5 381v283h-86zM338 1237l307 236l311 -41l-389 -236z " />
<glyph unicode="&#xfb;" horiz-adv-x="1292" d="M31 754v270h495v-494q0 -136 25 -197t86 -61q55 0 92 44t37 112v326h-135v270h530v-752h101v-272h-388l-55 129q-1 -1 -20.5 -24t-27.5 -30.5t-30 -28.5t-40.5 -30t-46 -22t-59 -18t-67.5 -5q-226 0 -318.5 119t-92.5 381v283h-86zM274 1196l277 236h190l277 -236 l-238 -72l-133 181l-135 -181z" />
<glyph unicode="&#xfc;" horiz-adv-x="1292" d="M31 754v270h495v-494q0 -136 25 -197t86 -61q55 0 92 44t37 112v326h-135v270h530v-752h101v-272h-388l-55 129q-1 -1 -20.5 -24t-27.5 -30.5t-30 -28.5t-40.5 -30t-46 -22t-59 -18t-67.5 -5q-226 0 -318.5 119t-92.5 381v283h-86zM264 1245q0 59 43.5 102.5t104.5 43.5 q60 0 103.5 -43.5t43.5 -102.5q0 -61 -43.5 -105t-103.5 -44q-61 0 -104.5 43.5t-43.5 105.5zM733 1245q0 59 44.5 102.5t105.5 43.5q60 0 102.5 -43.5t42.5 -102.5q0 -62 -42.5 -105.5t-102.5 -43.5q-62 0 -106 44t-44 105z" />
<glyph unicode="&#xfd;" horiz-adv-x="1187" d="M-18 762v262h630v-260h-96l133 -320l133 320h-94v260h520v-254h-98l-389 -946q-23 -49 -40 -80t-54.5 -75.5t-79.5 -70.5t-111.5 -45t-154.5 -18q-138 8 -248 103l153 241q67 -59 119 -69q44 -8 79 24.5t52 83.5l29 86l-399 758h-84zM285 1237l307 236l311 -41l-389 -236 z" />
<glyph unicode="&#xfe;" horiz-adv-x="1343" d="M63 -246h87v1514h-87v268h496v-592q34 39 113 67.5t155 28.5q113 0 205 -45t150 -120.5t88 -171t28 -199.5q-5 -239 -131.5 -383t-341.5 -144q-56 0 -98 7t-73.5 22.5t-49 27.5t-45.5 36v-316h103v-266h-599v266zM555 489q0 -103 44 -174t103 -71q65 0 105.5 70t40.5 186 q0 62 -18 119.5t-52.5 95t-77.5 37.5q-63 0 -107 -73t-38 -190z" />
<glyph unicode="&#xff;" horiz-adv-x="1187" d="M-18 762v262h630v-260h-96l133 -320l133 320h-94v260h520v-254h-98l-389 -946q-23 -49 -40 -80t-54.5 -75.5t-79.5 -70.5t-111.5 -45t-154.5 -18q-138 8 -248 103l153 241q67 -59 119 -69q44 -8 79 24.5t52 83.5l29 86l-399 758h-84zM211 1245q0 59 43 102.5t104 43.5 q60 0 104 -43.5t44 -102.5q0 -61 -44 -105t-104 -44q-61 0 -104 43.5t-43 105.5zM680 1245q0 59 44 102.5t105 43.5q60 0 103 -43.5t43 -102.5q0 -61 -43 -105t-103 -44q-61 0 -105 44t-44 105z" />
<glyph unicode="&#x152;" horiz-adv-x="2271" d="M31 723q0 218 91 388.5t254.5 264.5t373.5 94q157 0 282 -38h1188v-453h-354v182h-328v-282h389v-273h-389v-334h328v191h354v-463h-1190q-118 -37 -266 -37q-162 0 -295.5 47.5t-231.5 140t-152 238.5t-54 334zM537 723q0 -198 63.5 -318t163.5 -120q96 0 152.5 116 t56.5 308q0 129 -22.5 226.5t-74.5 158.5t-128 61q-93 1 -152 -120t-59 -312z" />
<glyph unicode="&#x153;" horiz-adv-x="1884" d="M23 516q1 100 32 186.5t85 149t125 108t152.5 67.5t166.5 22q218 -3 362 -111q142 115 359 115q180 0 312 -82.5t177 -214.5q14 -40 22 -95t5 -125.5t-23 -125.5h-645q5 -23 10 -39t20 -43t35.5 -43.5t58.5 -29.5t87 -13q169 0 287 98l172 -199q-111 -96 -237.5 -137 t-291.5 -41q-202 0 -346 115q-148 -105 -354 -105q-112 0 -213.5 34.5t-183 100.5t-128.5 171.5t-46 236.5zM442 514q0 -124 43 -201t109 -77q64 0 101.5 76.5t37.5 195.5t-39.5 196t-109.5 78q-60 0 -101 -77.5t-41 -190.5zM1159 612h309q-1 34 -6.5 59.5t-20 51t-46 39.5 t-78.5 14q-36 0 -64 -12.5t-44.5 -30.5t-28 -41.5t-16 -42.5t-5.5 -37z" />
<glyph unicode="&#x178;" horiz-adv-x="1370" d="M-20 1169v263h700v-263h-107l119 -217q5 -17 32.5 -82t31.5 -84h8q3 14 13 39.5t18.5 44.5t24.5 52t20 41l112 206h-112v263h551v-263h-111l-379 -665v-238h115v-266h-656v266h117v242l-397 661h-100zM303 1653q0 59 43.5 102t104.5 43q60 0 103.5 -43t43.5 -102 q0 -61 -43.5 -105.5t-103.5 -44.5q-61 0 -104.5 44t-43.5 106zM772 1653q0 59 44.5 102t105.5 43q60 0 102.5 -43t42.5 -102q0 -62 -42.5 -106t-102.5 -44q-62 0 -106 44.5t-44 105.5z" />
<glyph unicode="&#x2c6;" d="M102 1196l277 236h190l277 -236l-238 -72l-133 181l-135 -181z" />
<glyph unicode="&#x2dc;" d="M102 1247q27 91 81.5 144.5t133.5 56.5q38 2 71.5 -12t56.5 -35t43 -42t41.5 -34.5t43.5 -11.5q28 3 58 44.5t39 65.5l143 -88q-27 -91 -81.5 -144t-135.5 -56q-37 -1 -70 13t-56 35t-43.5 41.5t-42 34t-42.5 11.5q-28 -3 -60 -47.5t-34 -63.5z" />
<glyph unicode="&#x2000;" horiz-adv-x="955" />
<glyph unicode="&#x2001;" horiz-adv-x="1911" />
<glyph unicode="&#x2002;" horiz-adv-x="955" />
<glyph unicode="&#x2003;" horiz-adv-x="1911" />
<glyph unicode="&#x2004;" horiz-adv-x="637" />
<glyph unicode="&#x2005;" horiz-adv-x="477" />
<glyph unicode="&#x2006;" horiz-adv-x="318" />
<glyph unicode="&#x2007;" horiz-adv-x="318" />
<glyph unicode="&#x2008;" horiz-adv-x="238" />
<glyph unicode="&#x2009;" horiz-adv-x="382" />
<glyph unicode="&#x200a;" horiz-adv-x="106" />
<glyph unicode="&#x2010;" horiz-adv-x="696" d="M51 352v273h594v-273h-594z" />
<glyph unicode="&#x2011;" horiz-adv-x="696" d="M51 352v273h594v-273h-594z" />
<glyph unicode="&#x2012;" horiz-adv-x="696" d="M51 352v273h594v-273h-594z" />
<glyph unicode="&#x2013;" horiz-adv-x="915" d="M66 352v273h772v-273h-772z" />
<glyph unicode="&#x2014;" horiz-adv-x="1292" d="M86 352v273h1104v-273h-1104z" />
<glyph unicode="&#x2018;" horiz-adv-x="522" d="M61 1174q0 74 25.5 150t64.5 133.5t73.5 97t62.5 61.5l88 -55q-41 -43 -57 -108t18 -95q56 -24 90.5 -73.5t34.5 -110.5q0 -83 -59 -142t-142 -59q-82 0 -140.5 59t-58.5 142z" />
<glyph unicode="&#x2019;" horiz-adv-x="522" d="M61 1415q0 83 59 142t142 59q82 0 140.5 -59t58.5 -142q0 -74 -25.5 -150t-64 -133.5t-73 -97t-62.5 -61.5l-89 55q41 43 57 108t-18 95q-56 24 -90.5 73.5t-34.5 110.5z" />
<glyph unicode="&#x201a;" horiz-adv-x="616" d="M-12 -264q115 144 161.5 293.5t32.5 371.5l373 -98q6 -194 -82.5 -375.5t-249.5 -324.5z" />
<glyph unicode="&#x201c;" horiz-adv-x="989" d="M61 1174q0 74 25.5 150t64.5 133.5t73.5 97t62.5 61.5l88 -55q-41 -43 -57 -108t18 -95q56 -24 90.5 -73.5t34.5 -110.5q0 -83 -59 -142t-142 -59q-82 0 -140.5 59t-58.5 142zM528 1174q0 74 25.5 150t64.5 133.5t73.5 97t62.5 61.5l88 -55q-41 -43 -57 -108t18 -95 q56 -24 90.5 -73.5t34.5 -110.5q0 -83 -59 -142t-142 -59q-82 0 -140.5 59t-58.5 142z" />
<glyph unicode="&#x201d;" horiz-adv-x="991" d="M61 1415q0 83 59 142t142 59q82 0 140.5 -59t58.5 -142q0 -74 -25.5 -150t-64 -133.5t-73 -97t-62.5 -61.5l-89 55q41 43 57 108t-18 95q-56 24 -90.5 73.5t-34.5 110.5zM530 1415q0 83 59 142t142 59q82 0 140.5 -59t58.5 -142q0 -74 -25.5 -150t-64 -133.5t-73 -97 t-62.5 -61.5l-89 55q41 43 57 108t-18 95q-56 24 -90.5 73.5t-34.5 110.5z" />
<glyph unicode="&#x201e;" d="M-12 -264q115 144 161.5 293.5t32.5 371.5l373 -98q6 -194 -82.5 -375.5t-249.5 -324.5zM496 -264q115 144 161.5 293.5t32.5 371.5l373 -98q6 -194 -82.5 -375.5t-249.5 -324.5z" />
<glyph unicode="&#x2022;" horiz-adv-x="712" d="M123 659q0 87 63 160.5t168 73.5t170.5 -74t65.5 -160q0 -96 -62 -158.5t-174 -62.5q-98 0 -164.5 68t-66.5 153z" />
<glyph unicode="&#x2026;" horiz-adv-x="1605" d="M31 213q0 87 63 160t168 73t170.5 -73.5t65.5 -159.5q0 -96 -62 -158.5t-174 -62.5q-98 0 -164.5 68t-66.5 153zM551 213q0 87 63 160t168 73t170.5 -73.5t65.5 -159.5q0 -96 -62 -158.5t-174 -62.5q-98 0 -164.5 68t-66.5 153zM1077 213q0 87 63.5 160t168.5 73 t170 -73.5t65 -159.5q0 -96 -62 -158.5t-173 -62.5q-98 0 -165 68t-67 153z" />
<glyph unicode="&#x202f;" horiz-adv-x="382" />
<glyph unicode="&#x2039;" horiz-adv-x="700" d="M41 471l289 471h309l-289 -471l289 -471h-309z" />
<glyph unicode="&#x203a;" horiz-adv-x="700" d="M41 0l289 471l-289 471h309l289 -471l-289 -471h-309z" />
<glyph unicode="&#x205f;" horiz-adv-x="477" />
<glyph unicode="&#x20ac;" horiz-adv-x="1390" d="M0 424v203h113q-4 62 -4 92q0 15 1 42t1 40h-111v203h150q71 223 249.5 346t431.5 123q181 0 306 -57t233 -179l-199 -182q-13 14 -30 28.5t-55 38.5t-95.5 39t-124.5 15q-204 0 -297 -172h324v-203h-383q-4 -54 -4 -82q0 -49 6 -92h381v-203h-318q94 -162 291 -162 q67 0 124.5 15t95.5 40t55 39t30 29l199 -184q-108 -121 -233 -177.5t-306 -56.5q-250 0 -427.5 120t-249.5 337h-154z" />
<glyph unicode="&#x2122;" horiz-adv-x="1189" d="M20 1253v179h463v-179h-102v88h-57v-299h57v-92h-256v92h55v299h-59v-88h-101zM510 950v88h39v305h-37v89h260l70 -258l65 258h262v-89h-36v-303h36v-90h-217v90h39v271h-2q-13 -68 -20 -92l-72 -269h-145l-76 275q-11 33 -14 86h-5v-273h39v-88h-186z" />
<glyph unicode="&#x25fc;" horiz-adv-x="1024" d="M0 0v1024h1024v-1024h-1024z" />
</font>
</defs>
</svg>
